<?xml version="1.0" encoding="UTF-8"?>
<svg id="Layer_1" data-name="Layer 1" xmlns="http://www.w3.org/2000/svg" viewBox="0 0 687 195.25">
  <defs>
    <style>
      path {
        fill: #ffffff;
      }
      .cls-1 {
        fill: #f01a22 !important;
      }
    </style>
  </defs>
  <g>
    <path d="M535.38,116.58V.33c2.43,0,4.67,0,6.9,0,32.08,0,64.18,.57,96.25-.16,28.72-.65,48.43,21.77,48.46,45.61,.01,12.12,.24,24.41-1.59,36.32-1.94,12.63-9.9,22.13-21.72,29.35,0-2.53,0-4.28,0-6.03,.01-19.01-.12-38.02,.09-57.02,.16-14.38-10.48-25.03-24.41-24.72-25.23,.57-50.48,.16-75.72,.16-1.48,0-2.95,0-4.69,0V94c31.03-.66,61.8,.91,92.79-.96v23.53h-116.36Z"/>
    <path d="M196.66,117.18V.33c1.79,0,3.4,0,5.01,0,33.76,0,67.53,0,101.29,.03,23.94,.03,44.3,19.18,45.07,43.15,.4,12.57,.53,25.32-1.16,37.73-1.75,12.87-9.74,22.61-21.59,30.06-.12-1.97-.29-3.35-.29-4.72-.01-19.32,.03-38.63-.01-57.95-.03-11.18-5.26-19.74-14.32-23.3-2.08-.82-4.41-1.39-6.62-1.4-27.38-.11-54.75-.09-82.13-.09-.58,0-1.16,.18-1.75,.28V94.01c31.16-.71,62.08,.96,93.21-1.01,0,6.05,.12,13.2-.12,20.33-.04,1.13-1.49,2.65-2.66,3.18-1.44,.66-3.27,.63-4.93,.63-35.13,.13-70.26,.22-105.39,.31-1.05,0-2.09-.15-3.61-.27Z"/>
    <path d="M511.95,93.88v23.31h-5.11c-29.35,0-58.69,.01-88.04,0-24.21-.01-43.28-15.72-46.23-39.73-1.75-14.25-2.37-28.88,1.09-43.09,2.93-12.02,10.2-21.16,21.74-28.33,0,2.17,0,3.55,0,4.93,0,19.31-.02,38.62,0,57.93,.01,15.82,9.11,24.99,24.81,25,28.74,.01,57.47,0,86.21-.02,1.77,0,3.55,0,5.53,0Z"/>
    <path d="M98.36,108.34c-2,2.62-3.8,5.24-5.91,7.59-.78,.87-2.25,1.48-3.45,1.57-13.8,1.06-13.75,.99-22.03-10.07C45.4,78.61,23.78,49.81,2.18,21c-.53-.71-1.06-1.43-2.18-2.93,8.39,0,16.08,.36,23.71-.12,5.33-.34,8.4,1.58,11.54,5.84,19.74,26.78,39.83,53.3,59.8,79.91,1.09,1.45,2.1,2.95,3.3,4.64Z"/>
    <path class="cls-1" d="M105.55,98.15c-5.18-6.94-9.88-13.23-14.76-19.77,8.48-11.29,16.85-22.45,25.22-33.61,10.21-13.62,20.46-27.21,30.58-40.89,1.7-2.29,3.54-3.33,6.43-3.28,8.16,.16,16.32,.05,25.6,.05-24.6,32.82-48.53,64.75-73.07,97.48Z"/>
    <path d="M407.12,25.17V2.01c4.9-1.83,94.59-2.83,104.79-1.17V23.83c-1.98,0-3.76,0-5.53,0-28.56,0-57.13-.05-85.69,.07-4.32,.02-8.65,.8-13.57,1.28Z"/>
  </g>
  <g>
    <path d="M234.81,195.25c-2.35,0-4.51-.39-6.49-1.17-1.98-.78-3.7-1.87-5.15-3.28-1.45-1.41-2.58-3.07-3.39-4.97-.81-1.91-1.21-3.99-1.21-6.25s.4-4.34,1.21-6.25c.81-1.91,1.94-3.56,3.41-4.97,1.47-1.41,3.19-2.5,5.17-3.28,1.98-.78,4.14-1.17,6.49-1.17s4.49,.37,6.45,1.1c1.95,.73,3.62,1.85,4.99,3.34l-2.02,2.07c-1.29-1.29-2.71-2.21-4.27-2.77-1.55-.56-3.23-.84-5.02-.84-1.91,0-3.66,.32-5.26,.95-1.6,.63-2.99,1.53-4.18,2.68-1.19,1.16-2.11,2.51-2.77,4.05s-.99,3.23-.99,5.08,.33,3.5,.99,5.06c.66,1.56,1.58,2.91,2.77,4.07,1.19,1.16,2.58,2.05,4.18,2.68,1.6,.63,3.34,.95,5.21,.95,1.76,0,3.42-.26,4.99-.79,1.57-.53,3.01-1.42,4.33-2.68l1.85,2.46c-1.47,1.29-3.18,2.27-5.15,2.93s-4.02,.99-6.16,.99Zm8.18-4.31v-11.35h3.12v11.75l-3.12-.4Z"/>
    <path d="M281.71,194.99v-30.8h11.53c2.61,0,4.85,.42,6.73,1.25,1.88,.84,3.32,2.04,4.33,3.61,1.01,1.57,1.52,3.47,1.52,5.7s-.51,4.04-1.52,5.61c-1.01,1.57-2.46,2.77-4.33,3.61-1.88,.84-4.12,1.25-6.73,1.25h-9.72l1.45-1.5v11.26h-3.26Zm3.26-11l-1.45-1.54h9.64c3.08,0,5.42-.67,7.02-2.02s2.4-3.24,2.4-5.68-.8-4.37-2.4-5.72c-1.6-1.35-3.94-2.02-7.02-2.02h-9.64l1.45-1.54v18.52Zm17.78,11l-7.92-11.18h3.52l7.96,11.18h-3.56Z"/>
    <path d="M353.39,195.25c-2.32,0-4.47-.39-6.45-1.17-1.98-.78-3.7-1.88-5.15-3.3-1.45-1.42-2.58-3.08-3.39-4.97-.81-1.89-1.21-3.97-1.21-6.23s.4-4.33,1.21-6.23c.81-1.89,1.94-3.55,3.39-4.97s3.16-2.52,5.13-3.3,4.12-1.17,6.47-1.17,4.46,.39,6.42,1.17c1.96,.78,3.67,1.87,5.13,3.28,1.45,1.41,2.58,3.07,3.39,4.97,.81,1.91,1.21,3.99,1.21,6.25s-.4,4.34-1.21,6.25c-.81,1.91-1.94,3.56-3.39,4.97s-3.16,2.5-5.13,3.28c-1.97,.78-4.11,1.17-6.42,1.17Zm0-2.9c1.85,0,3.56-.32,5.13-.95,1.57-.63,2.93-1.52,4.09-2.68s2.06-2.51,2.71-4.05c.64-1.54,.97-3.23,.97-5.08s-.32-3.54-.97-5.08c-.65-1.54-1.55-2.89-2.71-4.05s-2.52-2.05-4.09-2.68c-1.57-.63-3.28-.95-5.13-.95s-3.56,.32-5.15,.95c-1.58,.63-2.96,1.53-4.11,2.68-1.16,1.16-2.07,2.51-2.73,4.05s-.99,3.23-.99,5.08,.33,3.5,.99,5.06c.66,1.56,1.57,2.91,2.73,4.07,1.16,1.16,2.53,2.05,4.11,2.68,1.58,.63,3.3,.95,5.15,.95Z"/>
    <path d="M415.65,195.25c-3.93,0-7.03-1.13-9.28-3.39-2.26-2.26-3.39-5.6-3.39-10.03v-17.64h3.26v17.51c0,3.64,.82,6.32,2.46,8.05s3.96,2.6,6.95,2.6,5.35-.87,7-2.6,2.46-4.42,2.46-8.05v-17.51h3.17v17.64c0,4.43-1.12,7.77-3.37,10.03-2.24,2.26-5.33,3.39-9.26,3.39Z"/>
    <path d="M464.49,194.99v-30.8h11.53c2.61,0,4.85,.42,6.73,1.25,1.88,.84,3.32,2.04,4.33,3.61,1.01,1.57,1.52,3.47,1.52,5.7s-.51,4.04-1.52,5.61c-1.01,1.57-2.46,2.78-4.33,3.63-1.88,.85-4.12,1.28-6.73,1.28h-9.72l1.45-1.54v11.26h-3.26Zm3.26-11l-1.45-1.58h9.64c3.08,0,5.42-.67,7.02-2,1.6-1.33,2.4-3.22,2.4-5.65s-.8-4.37-2.4-5.72c-1.6-1.35-3.94-2.02-7.02-2.02h-9.64l1.45-1.54v18.52Z"/>
  </g>
</svg>
